<svg xmlns="http://www.w3.org/2000/svg" viewBox="0 0 186.16 158.87"><defs><style>.cls-1{isolation:isolate;}.cls-2{fill:#81d4de;}.cls-3{fill:#9be1e7;}.cls-4{fill:#51c7c5;}.cls-5{fill:#40b5a5;}.cls-6{fill:#69c6d6;}.cls-7,.cls-8{fill:#fff;}.cls-7{opacity:0.1;}.cls-9{opacity:0.05;mix-blend-mode:multiply;}</style></defs><title>Asset 3gem</title><g class="cls-1"><g id="Layer_2" data-name="Layer 2"><g id="OBJECTS"><polygon class="cls-2" points="150.6 0 186.16 49.61 93.08 158.88 0 49.61 35.55 0 150.6 0"/><polygon class="cls-3" points="150.05 71.93 91.96 0 78.95 0 143.32 78.65 150.05 71.93"/><polygon class="cls-3" points="134.57 83.17 64.91 0 35.55 0 29.92 7.86 127.85 89.9 134.57 83.17"/><polygon class="cls-3" points="122.66 96.8 24.62 15.25 18.61 23.65 115.94 103.53 122.66 96.8"/><polygon class="cls-3" points="159.82 62.16 109.61 0 103.15 0 156.63 65.35 159.82 62.16"/><polygon class="cls-4" points="139.13 61.46 93.08 158.88 47.03 61.46 139.13 61.46"/><polygon class="cls-2" points="47.03 61.46 0 49.61 93.08 158.88 47.03 61.46"/><polygon class="cls-5" points="93.08 158.88 139.13 61.46 186.16 49.61 93.08 158.88"/><polygon class="cls-3" points="35.55 0 74.46 0 47.03 61.46 0 49.61 35.55 0"/><polygon class="cls-6" points="150.6 0 111.7 0 139.13 61.46 186.16 49.61 150.6 0"/><polygon class="cls-7" points="139.13 54.96 47.03 54.96 0 49.61 47.03 61.46 139.13 61.46 186.16 49.61 139.13 54.96"/><polygon class="cls-8" points="54.55 52.46 72.43 56.58 54.55 60.69 50.44 78.57 46.33 60.69 28.45 56.58 46.33 52.46 50.44 34.58 54.55 52.46"/><polygon class="cls-8" points="138.9 63.58 149.16 65.94 138.9 68.3 136.54 78.57 134.18 68.3 123.92 65.94 134.18 63.58 136.54 53.32 138.9 63.58"/><polygon class="cls-9" points="93.08 136.07 0 49.61 93.08 158.88 186.16 49.61 186.16 49.61 186.16 49.61 93.08 136.07"/></g></g></g></svg>