<svg xmlns="http://www.w3.org/2000/svg" viewBox="0 0 179.32 155.3"><defs><style>.cls-1{isolation:isolate;}.cls-2{fill:#f078a7;}.cls-3{fill:#fa8cb5;}.cls-4{fill:#ff9cc1;}.cls-5{fill:#de7391;}.cls-6{fill:#c25875;}.cls-7{fill:#fc7faf;}.cls-8{fill:#a32e4e;}.cls-9{fill:#fff;}.cls-10{opacity:0.1;mix-blend-mode:multiply;}</style></defs><title>2gem</title><g class="cls-1"><g id="Layer_2" data-name="Layer 2"><g id="OBJECTS"><polygon class="cls-2" points="67.11 124.29 44.56 77.65 67.11 31 112.22 31 134.77 77.65 112.22 124.29 67.11 124.29"/><polygon class="cls-3" points="92.04 124.29 50.34 89.61 62.15 114.03 74.65 124.29 92.04 124.29"/><polygon class="cls-3" points="62.3 40.96 46.64 73.35 107.45 124.29 112.22 124.29 119.49 109.24 62.3 40.96"/><polygon class="cls-3" points="85.03 31 70.17 31 124.95 97.94 130.25 86.99 85.03 31"/><polygon class="cls-3" points="104.88 31 97.36 31 133.65 75.34 123.16 53.64 104.88 31"/><polygon class="cls-4" points="67.11 31 44.83 0 134.49 0 112.22 31 67.11 31"/><polygon class="cls-5" points="44.56 77.65 0 77.65 44.83 0 67.11 31 44.56 77.65"/><polygon class="cls-6" points="67.11 124.29 44.83 155.3 0 77.65 44.56 77.65 67.11 124.29"/><polygon class="cls-7" points="134.77 77.65 179.32 77.65 134.49 0 112.22 31 134.77 77.65"/><polygon class="cls-6" points="112.22 124.29 134.77 77.65 179.32 77.65 134.49 155.3 112.22 124.29"/><polygon class="cls-8" points="44.83 155.3 67.11 124.29 112.22 124.29 134.49 155.3 44.83 155.3"/><path class="cls-3" d="M112.74,29.45H66.58L43.51,77.77l23.07,48.31h46.16l23.08-48.31ZM111.89,124H67.43L45.21,77.77,67.43,31.49h44.46l22.23,46.28Z"/><polygon class="cls-9" points="71.22 31.25 89.1 35.36 71.22 39.47 67.11 57.35 63 39.47 45.12 35.36 63 31.25 67.11 13.37 71.22 31.25"/><polygon class="cls-9" points="137.13 77.83 147.39 80.19 137.13 82.55 134.77 92.81 132.41 82.55 122.14 80.19 132.41 77.83 134.77 67.57 137.13 77.83"/><polygon class="cls-10" points="126.16 139.8 53.16 139.8 0 77.65 44.83 155.3 134.49 155.3 179.32 77.65 126.16 139.8"/></g></g></g></svg>