<svg xmlns="http://www.w3.org/2000/svg" viewBox="0 0 179.41 179.41"><defs><style>.cls-1{isolation:isolate;}.cls-2{fill:#e0e56e;}.cls-3{fill:#eaf073;}.cls-4{fill:#a69e3d;}.cls-5{fill:#c4bc50;}.cls-6{fill:#bab245;}.cls-7{fill:#c6cc4c;}.cls-8{fill:#b1b836;}.cls-9{fill:#e5eb78;}.cls-10{fill:#fff;}.cls-11{opacity:0.1;mix-blend-mode:multiply;}</style></defs><title>3</title><g class="cls-1"><g id="Layer_2" data-name="Layer 2"><g id="OBJECTS"><path class="cls-2" d="M89.71,0A18.59,18.59,0,0,0,76.54,5.45L5.45,76.54A18.59,18.59,0,0,0,0,89.71H89.71Z"/><polygon class="cls-3" points="43.94 38.06 19.85 62.15 52.74 89.71 87.2 89.71 43.94 38.06"/><path class="cls-3" d="M33.39,89.71,11,71l-5.5,5.5A18.76,18.76,0,0,0,1.8,81.75l9.7,8Z"/><polygon class="cls-3" points="64.51 17.48 54.5 27.5 89.7 70.51 89.7 48.68 64.51 17.48"/><path class="cls-3" d="M78.34,3.89a18.79,18.79,0,0,0-1.8,1.56L73.19,8.81,89.71,29V18Z"/><path class="cls-4" d="M89.71,179.41A18.54,18.54,0,0,0,102.87,174L174,102.87a18.57,18.57,0,0,0,5.45-13.16H89.71Z"/><path class="cls-5" d="M102.87,5.45A18.58,18.58,0,0,0,89.71,0V89.71h89.7A18.59,18.59,0,0,0,174,76.54Z"/><path class="cls-6" d="M0,89.71a18.58,18.58,0,0,0,5.45,13.16L76.54,174a18.55,18.55,0,0,0,13.17,5.45V89.71Z"/><path class="cls-7" d="M142.9,81.4a11.77,11.77,0,0,1,0,16.62L98,142.9a11.75,11.75,0,0,1-16.62,0L36.52,98a11.75,11.75,0,0,1,0-16.62L81.4,36.52a11.74,11.74,0,0,1,16.61,0Z"/><path class="cls-8" d="M134.64,82.69a9.92,9.92,0,0,1,0,14L96.73,134.64a9.92,9.92,0,0,1-14,0L44.77,96.73a9.92,9.92,0,0,1,0-14L82.69,44.77a9.91,9.91,0,0,1,14,0Z"/><path class="cls-2" d="M129.42,83.5a8.77,8.77,0,0,1,0,12.41L95.91,129.43a8.79,8.79,0,0,1-12.41,0L50,95.91A8.77,8.77,0,0,1,50,83.5L83.5,50a8.77,8.77,0,0,1,12.41,0Z"/><path class="cls-9" d="M47.82,87.08A8.78,8.78,0,0,0,50,95.91l27.93,27.93,9.58,7.87a8.77,8.77,0,0,0,8.41-2.28l1.28-1.28Z"/><path class="cls-9" d="M98.55,52.63,131.43,92.8a8.78,8.78,0,0,0-2-9.3Z"/><polygon class="cls-9" points="71.33 62.16 52.9 80.59 102.88 122.45 113.2 112.14 71.33 62.16"/><path class="cls-9" d="M85.2,48.67A8.83,8.83,0,0,0,83.5,50l-5.1,5.1,41.34,50.51,6.33-6.33Z"/><polygon class="cls-10" points="88.69 29.93 106.57 34.05 88.69 38.16 84.58 56.04 80.46 38.16 62.59 34.05 80.46 29.93 84.58 12.06 88.69 29.93"/><path class="cls-11" d="M174,92.79l-71.09,71.09a18.63,18.63,0,0,1-26.33,0L5.45,92.79A18.57,18.57,0,0,1,.71,84.67a18.37,18.37,0,0,0-.71,5,18.58,18.58,0,0,0,5.45,13.16L76.54,174a18.63,18.63,0,0,0,26.33,0L174,102.87a18.58,18.58,0,0,0,4.75-18.2A18.59,18.59,0,0,1,174,92.79Z"/></g></g></g></svg>