<svg xmlns="http://www.w3.org/2000/svg" viewBox="0 0 140.56 190.46"><defs><style>.cls-1{isolation:isolate;}.cls-2{fill:#fa9a16;}.cls-3{fill:#ffb562;}.cls-4{fill:#f5930a;}.cls-5{fill:#ffc585;}.cls-6{fill:#c96800;}.cls-7{fill:#f57f00;}.cls-8{fill:#d97000;}.cls-9{fill:#ffa324;}.cls-10{fill:#ffae40;}.cls-11{fill:#fff;}.cls-12{opacity:0.1;mix-blend-mode:multiply;}</style></defs><title>4</title><g class="cls-1"><g id="Layer_2" data-name="Layer 2"><g id="OBJECTS"><path class="cls-2" d="M110,149.53c0,8-5,14.44-11.29,14.44H41.88c-6.24,0-11.29-6.46-11.29-14.44V40.92c0-8,5.05-14.44,11.29-14.44h56.8C104.92,26.48,110,33,110,40.92Z"/><path class="cls-3" d="M30.75,149.54V40.92a16.72,16.72,0,0,1,3.15-10L4.57,7.27A20,20,0,0,0,0,20V170.46a19.87,19.87,0,0,0,4.54,12.68L33.87,159.5A16.73,16.73,0,0,1,30.75,149.54Z"/><path class="cls-4" d="M109.81,40.92V149.54a16.73,16.73,0,0,1-3.12,10L136,183.14a19.87,19.87,0,0,0,4.54-12.68V20A20,20,0,0,0,136,7.27L106.66,30.91A16.72,16.72,0,0,1,109.81,40.92Z"/><path class="cls-5" d="M42,26.48H98.56a10.24,10.24,0,0,1,8.1,4.43L136,7.27A20,20,0,0,0,120.56,0H20A20,20,0,0,0,4.57,7.27L33.9,30.91A10.24,10.24,0,0,1,42,26.48Z"/><path class="cls-6" d="M20,190.46H120.56A19.93,19.93,0,0,0,136,183.14L106.69,159.5A10.23,10.23,0,0,1,98.56,164H42a10.23,10.23,0,0,1-8.13-4.48L4.54,183.14A19.93,19.93,0,0,0,20,190.46Z"/><path class="cls-7" d="M109.81,40.92a16.72,16.72,0,0,0-3.15-10L98.24,37.7H42.32L33.9,30.91a16.72,16.72,0,0,0-3.15,10V149.54a16.73,16.73,0,0,0,3.12,10l8.45-6.82H98.24l8.45,6.82a16.73,16.73,0,0,0,3.12-10Z"/><path class="cls-8" d="M104.74,145.21c0,7.34-4.39,13.29-9.81,13.29H45.63c-5.42,0-9.81-5.95-9.81-13.29v-100c0-7.34,4.39-13.29,9.81-13.29h49.3c5.42,0,9.81,5.95,9.81,13.29Z"/><path class="cls-9" d="M101.45,143.11c0,7-4,12.73-8.87,12.73H48c-4.9,0-8.87-5.7-8.87-12.73V47.35c0-7,4-12.73,8.87-12.73h44.6c4.9,0,8.87,5.7,8.87,12.73Z"/><path class="cls-10" d="M101.45,79.38v-32c0-6.53-3.42-11.9-7.83-12.64L39.11,99.79V131.6Z"/><path class="cls-10" d="M101.45,99.05,40.18,149.19c1.51,4,4.44,6.65,7.8,6.65h5.94l47.53-38.38Z"/><polygon class="cls-10" points="101.45 142.85 101.45 133.84 74.57 155.84 85.36 155.84 101.45 142.85"/><polygon class="cls-10" points="39.11 57.8 39.11 80.05 76.91 34.62 58.13 34.62 39.11 57.8"/><polygon class="cls-11" points="43.23 31.26 61.1 35.37 43.23 39.48 39.11 57.36 35 39.48 17.12 35.37 35 31.26 39.11 13.38 43.23 31.26"/><path class="cls-12" d="M136,7.27c-.18-.21-.36-.42-.55-.62V156.53a20.85,20.85,0,0,1-4.2,12.68,18,18,0,0,1-14.34,7.32H23.66a18,18,0,0,1-14.34-7.32,20.85,20.85,0,0,1-4.2-12.68V6.65c-.19.2-.37.41-.55.62A20,20,0,0,0,0,20V170.46a20,20,0,0,0,20,20H120.56a20,20,0,0,0,20-20V20A20,20,0,0,0,136,7.27Z"/></g></g></g></svg>