<svg xmlns="http://www.w3.org/2000/svg" viewBox="0 0 176.1 208.46"><defs><style>.cls-1{isolation:isolate;}.cls-2{fill:#2ebaf5;}.cls-3{fill:#1eace8;}.cls-4{fill:#50deff;}.cls-5{fill:#82e7ff;}.cls-6{fill:#0f9edb;}.cls-7{fill:#0c82c4;}.cls-8{fill:#fff;}.cls-9{opacity:0.1;mix-blend-mode:multiply;}</style></defs><title>5</title><g class="cls-1"><g id="Layer_2" data-name="Layer 2"><g id="OBJECTS"><polygon class="cls-2" points="58.34 178.96 33.07 150 37.32 111.78 88.05 52.93 138.78 111.78 143.02 150 117.75 178.96 58.34 178.96"/><polygon class="cls-3" points="61.18 175.77 38.34 149.03 42.18 113.74 88.05 59.41 133.92 113.74 137.76 149.03 114.91 175.77 61.18 175.77"/><polygon class="cls-4" points="62.67 173.86 41.09 148.42 44.72 114.85 88.05 63.16 131.38 114.85 135 148.42 113.42 173.86 62.67 173.86"/><polygon class="cls-5" points="73.28 80.78 131.76 152.24 135 148.42 133.43 133.81 82.1 70.25 73.28 80.78"/><polygon class="cls-5" points="63.91 91.95 44.72 114.85 43.93 122.1 105.73 173.86 113.42 173.86 123.03 162.53 63.91 91.95"/><polygon class="cls-5" points="87.55 173.86 42.4 136.31 41.09 148.42 52.56 161.95 67.08 173.86 87.55 173.86"/><polygon class="cls-5" points="88.05 52.93 88.05 0 6.8 97.33 37.32 111.78 88.05 52.93"/><polygon class="cls-4" points="33.07 150 37.32 111.78 6.8 97.33 0 160.56 33.07 150"/><polygon class="cls-3" points="40.47 208.47 58.34 178.96 33.07 150 0 160.56 40.47 208.47"/><polygon class="cls-4" points="88.05 52.93 88.05 0 169.29 97.33 138.77 111.77 88.05 52.93"/><polygon class="cls-3" points="143.02 150 138.77 111.77 169.29 97.33 176.1 160.56 143.02 150"/><polygon class="cls-6" points="135.63 208.47 117.75 178.96 143.02 150 176.1 160.56 135.63 208.47"/><polygon class="cls-7" points="58.34 178.96 117.75 178.96 135.63 208.47 40.47 208.47 58.34 178.96"/><polygon class="cls-8" points="92.16 59.04 110.04 63.16 92.16 67.27 88.05 85.15 83.93 67.27 66.06 63.16 83.93 59.04 88.05 41.16 92.16 59.04"/><polygon class="cls-8" points="145.38 147.64 155.65 150 145.38 152.36 143.02 162.62 140.66 152.36 130.4 150 140.66 147.64 143.02 137.37 145.38 147.64"/><polygon class="cls-9" points="0 160.56 40.47 208.47 135.63 208.47 176.1 160.56 128.64 196.68 47.46 196.68 0 160.56"/></g></g></g></svg>