<svg xmlns="http://www.w3.org/2000/svg" viewBox="0 0 128.41 218.32"><defs><style>.cls-1{isolation:isolate;}.cls-2{fill:#e0413a;}.cls-3{fill:#ff948f;}.cls-4{fill:#ff9e99;}.cls-5{fill:#f8756f;}.cls-6{fill:#ff807a;}.cls-7{fill:#f85952;}.cls-8{fill:#cf3129;}.cls-9{fill:#fff;}.cls-10{opacity:0.1;mix-blend-mode:multiply;}</style></defs><title>6</title><g class="cls-1"><g id="Layer_2" data-name="Layer 2"><g id="OBJECTS"><polygon class="cls-2" points="0 112.28 0 163.74 64.2 218.32 128.41 163.74 128.41 112.28 0 112.28"/><polygon class="cls-3" points="128.41 107.28 128.41 54.58 64.2 0 0 54.58 0 107.28 128.41 107.28"/><polygon class="cls-4" points="0 80.98 2.61 83.59 68.86 3.96 64.2 0 53.24 9.32 0 74.19 0 80.98"/><polygon class="cls-4" points="14.11 93.64 94.83 26.03 74.67 8.9 8.44 87.97 14.11 93.64"/><polygon class="cls-4" points="117.77 45.53 114.28 42.57 35.21 107.28 41.31 107.28 117.77 45.53"/><polygon class="cls-4" points="108.78 37.89 102.05 32.17 17.92 101.02 23.59 106.69 108.78 37.89"/><rect class="cls-5" x="32.93" y="63.23" width="62.56" height="91.87"/><polygon class="cls-6" points="32.93 68.86 32.93 115.68 79.98 155.09 95.48 155.09 95.48 143.54 32.93 68.86"/><polygon class="cls-6" points="61.83 155.09 32.93 131.05 32.93 148.1 41.44 155.09 61.83 155.09"/><polygon class="cls-6" points="87.56 63.23 79 63.23 95.48 83.37 95.48 73.03 87.56 63.23"/><polygon class="cls-6" points="64.09 63.23 46.82 63.23 95.48 122.69 95.48 102.11 64.09 63.23"/><polygon class="cls-7" points="32.93 63.23 0 54.58 0 163.74 32.93 155.09 32.93 63.23"/><polygon class="cls-7" points="95.48 63.23 128.41 54.58 128.41 163.74 95.48 155.09 95.48 63.23"/><polygon class="cls-5" points="32.93 63.23 64.2 0 0 54.58 32.93 63.23"/><polygon class="cls-5" points="95.48 63.23 64.2 0 128.41 54.58 95.48 63.23"/><polygon class="cls-8" points="64.2 218.32 32.93 155.09 0 163.74 64.2 218.32"/><polygon class="cls-8" points="64.2 218.32 95.48 155.09 128.41 163.74 64.2 218.32"/><polygon class="cls-9" points="37.04 61.19 54.92 65.31 37.04 69.42 32.93 87.3 28.81 69.42 10.94 65.31 28.81 61.19 32.93 43.32 37.04 61.19"/><polygon class="cls-9" points="98.67 152.73 108.93 155.09 98.67 157.46 96.31 167.72 93.94 157.46 83.68 155.09 93.94 152.73 96.31 142.47 98.67 152.73"/><polygon class="cls-10" points="0 159.46 0 163.74 64.2 218.32 128.41 163.74 128.41 159.46 64.2 198.27 0 159.46"/></g></g></g></svg>